<svg xmlns="http://www.w3.org/2000/svg" viewBox="0 0 196 89" width="196" height="89">
  <g transform="translate(14,53.03)"><path fill="#292420" d="M16.632 0.728Q10.416 0.728 6.412 -2.52Q2.408 -5.768 1.568 -11.144L8.624 -12.88Q9.24 -9.296 11.452 -7.504Q13.664 -5.712 16.912 -5.712Q18.648 -5.712 20.02 -6.3Q21.392 -6.888 22.204 -8.036000000000001Q23.016000000000002 -9.184000000000001 23.016000000000002 -10.752Q23.016000000000002 -12.208 22.176000000000002 -13.272Q21.336000000000002 -14.336 19.628 -15.232Q17.92 -16.128 15.344000000000001 -17.080000000000002Q11.648 -18.536 9.155999999999999 -20.188000000000002Q6.664 -21.84 5.432 -24.024Q4.2 -26.208000000000002 4.2 -29.176000000000002Q4.2 -32.312 5.74 -34.72Q7.28 -37.128 10.052 -38.528000000000006Q12.824 -39.928000000000004 16.52 -39.928000000000004Q20.44 -39.928000000000004 23.492 -38.108000000000004Q26.544 -36.288000000000004 28.392 -32.704L22.624 -29.176000000000002Q21.448 -31.304000000000002 19.852 -32.396Q18.256 -33.488 16.296 -33.488Q14.896 -33.488 13.804 -32.956Q12.712 -32.424 12.068 -31.5Q11.424 -30.576 11.424 -29.344Q11.424 -28.056 12.18 -27.048000000000002Q12.936 -26.04 14.644 -25.116Q16.352 -24.192 19.096 -23.184Q22.736 -21.84 25.172 -20.216Q27.608 -18.592 28.896 -16.436Q30.184 -14.280000000000001 30.184 -11.200000000000001Q30.184 -7.728 28.476 -5.0120000000000005Q26.768 -2.2960000000000003 23.744 -0.7840000000000001Q20.72 0.728 16.632 0.728Z M33.376 11.424V-27.608H40.32V-20.216L38.64 -19.656Q39.368 -22.96 40.852000000000004 -24.808Q42.336 -26.656 44.24 -27.412Q46.144000000000005 -28.168 48.216 -28.168Q51.856 -28.168 54.516000000000005 -26.292Q57.176 -24.416 58.576 -21.168Q59.976 -17.92 59.976 -13.776Q59.976 -9.296 58.408 -6.076Q56.84 -2.856 54.152 -1.148Q51.464 0.56 48.216 0.56Q46.032 0.56 44.072 -0.33599999999999997Q42.112 -1.232 40.74 -3.052Q39.368 -4.872 38.864000000000004 -7.672000000000001L40.32 -7.448V11.424ZM46.312 -5.824Q48.384 -5.824 49.868 -6.804Q51.352000000000004 -7.784 52.192 -9.576Q53.032 -11.368 53.032 -13.776Q53.032 -16.240000000000002 52.192 -18.032000000000004Q51.352000000000004 -19.824 49.868 -20.804000000000002Q48.384 -21.784 46.312 -21.784Q44.296 -21.784 42.812 -20.776Q41.328 -19.768 40.516000000000005 -18.004Q39.704 -16.240000000000002 39.704 -13.776Q39.704 -11.368 40.516000000000005 -9.576Q41.328 -7.784 42.812 -6.804Q44.296 -5.824 46.312 -5.824Z M80.976 0.0 80.416 -4.144V-17.416Q80.416 -19.88 78.876 -21.084Q77.33600000000001 -22.288 74.70400000000001 -22.288Q72.52000000000001 -22.288 70.25200000000001 -21.42Q67.98400000000001 -20.552 66.248 -18.984L62.720000000000006 -23.744Q65.632 -26.096 68.684 -27.131999999999998Q71.736 -28.168 75.26400000000001 -28.168Q80.976 -28.168 84.168 -25.311999999999998Q87.36000000000001 -22.456 87.36000000000001 -17.416V0.0ZM72.632 0.56Q69.608 0.56 67.22800000000001 -0.5599999999999999Q64.848 -1.68 63.476 -3.752Q62.104000000000006 -5.824 62.104000000000006 -8.512Q62.104000000000006 -10.92 63.084 -12.628Q64.06400000000001 -14.336 65.688 -15.232000000000001Q67.08800000000001 -16.072 68.796 -16.408Q70.504 -16.744 72.464 -16.744H81.03200000000001V-11.592H73.47200000000001Q72.57600000000001 -11.592 71.708 -11.452Q70.84 -11.312 70.224 -10.808Q69.664 -10.416 69.384 -9.828Q69.104 -9.24 69.104 -8.512Q69.104 -6.944 70.33600000000001 -5.992Q71.56800000000001 -5.04 73.64 -5.04Q75.488 -5.04 77.028 -5.852Q78.56800000000001 -6.664 79.492 -8.091999999999999Q80.416 -9.52 80.416 -11.368L82.26400000000001 -7.672000000000001Q81.536 -4.76 80.052 -2.94Q78.56800000000001 -1.12 76.66400000000002 -0.28Q74.76 0.56 72.632 0.56Z M102.144 0.56Q99.904 0.56 98.0 -0.28Q96.096 -1.12 94.94800000000001 -3.024Q93.8 -4.928 93.8 -8.120000000000001V-34.048L100.85600000000001 -37.800000000000004V-10.024000000000001Q100.85600000000001 -7.6160000000000005 101.5 -6.384Q102.144 -5.152 104.048 -5.152Q104.608 -5.152 105.308 -5.264Q106.00800000000001 -5.376 106.848 -5.6000000000000005V-0.28Q105.672 0.168 104.49600000000001 0.36400000000000005Q103.32000000000001 0.56 102.144 0.56ZM88.76 -22.176000000000002V-27.608H106.848V-22.176000000000002Z M120.456 0.56Q118.21600000000001 0.56 116.31200000000001 -0.28Q114.408 -1.12 113.25999999999999 -3.024Q112.112 -4.928 112.112 -8.120000000000001V-34.048L119.168 -37.800000000000004V-10.024000000000001Q119.168 -7.6160000000000005 119.81200000000001 -6.384Q120.456 -5.152 122.36 -5.152Q122.92 -5.152 123.62 -5.264Q124.32 -5.376 125.16 -5.6000000000000005V-0.28Q123.98400000000001 0.168 122.808 0.36400000000000005Q121.632 0.56 120.456 0.56ZM107.072 -22.176000000000002V-27.608H125.16V-22.176000000000002Z M140.0 0.56Q136.416 0.56 133.84 -0.616Q131.264 -1.792 129.612 -3.78Q127.96 -5.768 127.17599999999999 -8.316Q126.392 -10.864 126.392 -13.664Q126.392 -16.352 127.17599999999999 -18.928Q127.96 -21.504 129.528 -23.576Q131.096 -25.648 133.588 -26.908Q136.07999999999998 -28.168 139.552 -28.168Q142.8 -28.168 145.208 -27.076Q147.61599999999999 -25.984 149.184 -24.052Q150.752 -22.12 151.56400000000002 -19.544Q152.376 -16.968 152.376 -14.056000000000001Q152.376 -13.664 152.348 -12.964Q152.32 -12.264000000000001 152.208 -11.48H133.33599999999998Q133.61599999999999 -8.512 135.548 -7.0Q137.48 -5.488 140.392 -5.488Q142.51999999999998 -5.488 144.536 -6.244Q146.552 -7.0 148.12 -8.4L151.59199999999998 -3.696Q149.632 -2.184 147.89600000000002 -1.2320000000000002Q146.16 -0.28 144.284 0.14Q142.408 0.56 140.0 0.56ZM145.488 -14.952Q145.6 -15.4 145.684 -15.847999999999999Q145.768 -16.296 145.768 -16.688Q145.768 -17.864 145.32 -18.9Q144.87199999999999 -19.936 144.088 -20.72Q143.304 -21.504 142.212 -21.924Q141.12 -22.344 139.72 -22.344Q137.648 -22.344 136.248 -21.504Q134.84799999999998 -20.664 134.148 -19.348Q133.448 -18.032 133.28 -16.632H147.84Z M162.176 0.56Q159.32 0.56 157.47199999999998 -1.176Q155.624 -2.912 155.624 -6.664V-39.032000000000004H162.512V-8.008000000000001Q162.512 -6.832 163.072 -6.356Q163.632 -5.88 164.528 -5.88Q164.976 -5.88 165.48 -5.964Q165.98399999999998 -6.048 166.54399999999998 -6.216V-0.28Q165.368 0.168 164.22 0.36400000000000005Q163.072 0.56 162.176 0.56Z"/></g>
  <path d="M15.0,77.0 C56.5,72.0 106.2,71.5 139.4,74.0 C159.3,75.5 172.6,74.5 180.9,72.0" fill="none" stroke="#16A34A" stroke-width="6.0" stroke-linecap="butt"/>
</svg>